<?xml version="1.0" encoding="UTF-8" standalone="no"?>
<!DOCTYPE svg PUBLIC "-//W3C//DTD SVG 1.1//EN" "http://www.w3.org/Graphics/SVG/1.1/DTD/svg11.dtd">
<svg width="100%" height="100%" viewBox="0 0 186 29" version="1.1" xmlns="http://www.w3.org/2000/svg" xmlns:xlink="http://www.w3.org/1999/xlink" xml:space="preserve" xmlns:serif="http://www.serif.com/" style="fill-rule:evenodd;clip-rule:evenodd;stroke-linejoin:round;stroke-miterlimit:2;">
    <g transform="matrix(1,0,0,1,-110,0.499993)">
        <path d="M153.975,18.005C153.412,17.651 152.799,17.294 152.141,16.938C151.87,12.767 149.186,8.948 144.998,7.427C143.026,6.711 140.982,6.598 139.068,6.995C137.727,7.274 136.449,7.802 135.306,8.548C134.616,8.999 133.975,9.529 133.398,10.131C132.665,9.982 131.965,9.862 131.306,9.773C129.722,9.557 128.288,9.506 127.147,9.709C126.025,9.908 124.908,10.414 124.496,11.541C124.085,12.669 124.615,13.773 125.346,14.645C126.09,15.532 127.222,16.413 128.573,17.263C129.136,17.618 129.749,17.974 130.407,18.331C132.927,19.699 136.096,21.071 139.561,22.33C143.026,23.588 146.338,24.57 149.15,25.138C149.883,25.286 150.583,25.407 151.242,25.496C152.826,25.711 154.26,25.763 155.401,25.56C156.523,25.36 157.641,24.855 158.052,23.727C158.463,22.6 157.933,21.496 157.202,20.624C156.458,19.736 155.326,18.856 153.975,18.005ZM151.502,21.356L151.504,21.35C151.743,20.696 151.915,20.034 152.023,19.371C152.274,19.518 152.516,19.665 152.747,19.81C154.008,20.604 154.892,21.323 155.4,21.929C155.92,22.551 155.878,22.834 155.844,22.926C155.811,23.017 155.661,23.262 154.862,23.404C154.082,23.542 152.942,23.526 151.464,23.326C148.529,22.927 144.593,21.845 140.306,20.288C136.019,18.731 132.307,17.035 129.801,15.458C129.214,15.089 128.709,14.735 128.285,14.402L128.285,14.402C127.799,14.019 127.42,13.663 127.149,13.339C126.628,12.718 126.671,12.435 126.705,12.343C126.738,12.251 126.888,12.007 127.687,11.865C127.853,11.835 128.036,11.813 128.235,11.798C128.235,11.798 128.235,11.798 128.235,11.798C128.968,11.742 129.922,11.785 131.084,11.943C131.354,11.98 131.634,12.023 131.921,12.071C131.578,12.646 131.284,13.261 131.046,13.912L131.041,13.926C133.381,15.366 136.868,16.959 140.976,18.451C145.084,19.943 148.782,20.959 151.502,21.356Z"/>
    </g>
    <g transform="matrix(1,0,0,1,-110,0.499993)">
        <path d="M138.891,24.167C141.814,25.229 144.668,26.111 147.242,26.72C144.469,28.531 140.904,29.06 137.55,27.842C134.197,26.624 131.807,23.932 130.849,20.767C133.213,21.951 135.968,23.106 138.891,24.167Z" style="fill-rule:nonzero;"/>
    </g>
    <g transform="matrix(1,0,0,1,9.40313,7.6192)">
        <text x="40.302px" y="15.465px" style="font-family:'Arial-Black', 'Arial Black', sans-serif;font-weight:900;font-size:24px;">SP<tspan x="72.927px 91.161px 109.829px " y="15.465px 15.465px 15.465px ">ACE</tspan></text>
    </g>
</svg>
